<?xml version="1.0" standalone="no"?>
<!DOCTYPE svg PUBLIC "-//W3C//DTD SVG 20010904//EN"
 "http://www.w3.org/TR/2001/REC-SVG-20010904/DTD/svg10.dtd">
<svg version="1.0" xmlns="http://www.w3.org/2000/svg"
 width="1531.000000pt" height="1531.000000pt" viewBox="0 0 1531.000000 1531.000000"
 preserveAspectRatio="xMidYMid meet">

<g transform="translate(0.000000,1531.000000) scale(0.100000,-0.100000)"
fill="#64748b" stroke="none">
<path d="M4680 13805 l0 -745 -1022 -2 -1023 -3 -3 -1022 -2 -1023 -745 0
-745 0 0 -430 0 -430 745 0 745 0 0 -420 0 -420 -745 0 -745 0 0 -430 0 -430
745 0 745 0 0 -420 0 -420 -745 0 -745 0 0 -430 0 -430 745 0 745 0 0 -420 0
-420 -745 0 -745 0 0 -430 0 -430 745 0 745 0 2 -1022 3 -1023 1023 -3 1022
-2 0 -745 0 -745 430 0 430 0 0 745 0 745 420 0 420 0 0 -745 0 -745 430 0
430 0 0 745 0 745 420 0 420 0 0 -745 0 -745 430 0 430 0 0 745 0 745 420 0
420 0 0 -745 0 -745 430 0 430 0 0 745 0 745 1023 2 1022 3 3 1023 2 1022 745
0 745 0 0 430 0 430 -745 0 -745 0 0 420 0 420 745 0 745 0 0 430 0 430 -745
0 -745 0 0 420 0 420 745 0 745 0 0 430 0 430 -745 0 -745 0 0 420 0 420 745
0 745 0 0 430 0 430 -745 0 -745 0 -2 1023 -3 1022 -1022 3 -1023 2 0 745 0
745 -430 0 -430 0 0 -745 0 -745 -420 0 -420 0 0 745 0 745 -430 0 -430 0 0
-745 0 -745 -420 0 -420 0 0 745 0 745 -430 0 -430 0 0 -745 0 -745 -420 0
-420 0 0 745 0 745 -430 0 -430 0 0 -745z m7140 -5775 l0 -4160 -4160 0 -4160
0 0 4160 0 4160 4160 0 4160 0 0 -4160z"/>
<path d="M6895 11388 c-2 -7 -26 -150 -54 -318 -28 -168 -53 -315 -56 -326 -4
-18 -39 -35 -186 -93 -100 -39 -191 -74 -204 -77 -18 -4 -82 35 -300 186
l-277 193 -541 -541 -540 -540 192 -276 c105 -151 191 -280 191 -285 0 -5 -16
-47 -36 -93 -20 -45 -54 -132 -76 -193 -22 -60 -41 -112 -44 -114 -2 -3 -154
-30 -337 -61 l-332 -56 -3 -761 c-2 -719 -1 -762 15 -767 10 -3 155 -28 323
-56 168 -28 312 -53 321 -56 10 -3 29 -40 49 -97 17 -51 52 -139 76 -195 24
-57 44 -108 44 -113 0 -5 -86 -134 -191 -285 l-192 -276 540 -540 540 -540
278 192 c220 152 282 190 301 186 29 -8 375 -144 382 -150 2 -3 30 -155 61
-338 l57 -333 764 0 764 0 57 333 c31 183 59 335 61 338 7 6 353 142 382 150
19 4 81 -34 301 -186 l277 -193 541 541 540 540 -192 275 c-105 152 -191 280
-191 285 0 5 20 56 43 113 24 57 59 146 77 196 20 56 39 94 49 97 9 3 153 28
321 56 168 28 313 53 323 56 16 5 17 48 15 767 l-3 761 -335 57 c-184 32 -336
58 -337 58 -1 1 -11 31 -24 69 -12 37 -46 125 -76 196 -29 72 -53 134 -53 139
0 4 86 132 191 284 l192 275 -540 540 -540 540 -278 -192 c-219 -150 -283
-190 -301 -186 -29 8 -375 144 -382 150 -2 3 -30 155 -61 338 l-57 333 -762 3
c-605 2 -763 0 -767 -10z m851 -1111 c23 -137 46 -252 50 -256 5 -5 72 -20
149 -35 344 -67 548 -151 873 -360 l152 -98 198 133 c108 73 208 141 221 151
24 18 25 18 47 -3 l23 -22 -150 -223 -151 -224 98 -152 c190 -295 292 -539
355 -853 18 -88 35 -164 39 -168 4 -4 112 -26 241 -48 129 -21 244 -42 257
-44 18 -5 22 -12 22 -45 0 -33 -4 -40 -22 -45 -13 -2 -128 -23 -257 -44 -129
-22 -237 -44 -241 -48 -4 -4 -21 -80 -39 -168 -63 -315 -163 -556 -355 -852
l-98 -153 151 -224 150 -223 -23 -22 c-22 -21 -23 -21 -47 -3 -13 10 -113 78
-221 151 l-198 133 -147 -94 c-324 -208 -541 -297 -879 -364 -77 -15 -143 -30
-147 -34 -5 -4 -28 -120 -51 -256 l-42 -249 -44 0 -44 0 -42 249 c-23 136 -46
252 -51 256 -4 4 -70 19 -147 34 -338 67 -555 156 -879 364 l-147 94 -198
-133 c-108 -73 -208 -141 -221 -151 -24 -18 -25 -18 -47 3 l-23 22 150 223
151 224 -98 153 c-207 321 -293 531 -360 872 -15 77 -30 144 -34 148 -4 4
-112 26 -241 48 -129 21 -244 42 -256 44 -19 5 -23 12 -23 45 0 33 4 40 23 45
12 2 127 23 256 44 129 22 237 44 241 48 4 4 19 71 34 148 67 342 152 549 360
872 l98 153 -151 224 -150 223 23 22 c22 21 23 21 47 3 13 -10 113 -78 221
-151 l198 -133 164 106 c318 203 517 285 865 353 120 23 145 31 151 48 4 11
24 121 44 245 21 124 39 231 42 238 2 9 18 12 46 10 l42 -3 42 -248z"/>
<path d="M7514 9420 c-320 -34 -605 -171 -840 -405 -207 -206 -334 -443 -391
-732 -23 -118 -23 -363 1 -493 100 -558 538 -1014 1079 -1124 388 -80 756 -7
1083 212 406 274 645 764 604 1239 -23 265 -95 474 -234 682 -175 262 -442
465 -736 559 -181 58 -389 81 -566 62z m280 -876 c233 -60 396 -273 396 -517
-1 -282 -249 -526 -535 -527 -141 0 -273 55 -370 154 -285 291 -160 775 230
887 76 22 200 24 279 3z"/>
</g>
</svg>
