<?xml version="1.0" encoding="UTF-8"?>
<svg width="1200pt" height="1200pt" version="1.1" viewBox="0 0 1200 1200" xmlns="http://www.w3.org/2000/svg">
 <path d="m707.48 165.05 17.027-85.145c1.4688-7.3438-0.42969-14.961-5.1797-20.754-4.7461-5.793-11.84-9.1523-19.332-9.1523h-200c-7.4922 0-14.586 3.3594-19.332 9.1523-4.75 5.793-6.6484 13.41-5.1797 20.754l17.027 85.137v0.003906c-83.938 23.707-157.88 74.094-210.65 143.54-52.773 69.449-81.508 154.19-81.863 241.41v375c0 8.3594 4.1797 16.164 11.133 20.801l300 200c5.043 3.3633 11.137 4.7773 17.148 3.9844 6.0078-0.79688 11.523-3.75 15.52-8.3086 3.9961-4.5586 6.1992-10.414 6.1992-16.477v-75h100v75c0 6.0625 2.2031 11.918 6.1992 16.477 3.9961 4.5586 9.5117 7.5117 15.52 8.3086 6.0117 0.79297 12.105-0.62109 17.148-3.9844l300-200c6.9531-4.6367 11.133-12.441 11.133-20.801v-375c-0.35938-87.223-29.094-171.96-81.867-241.41-52.773-69.445-126.71-119.83-210.65-143.54zm-37.977-65.051-39.992 200h-59.031l-39.984-200zm-119.51 900v-125c0-6.6289-2.6328-12.988-7.3242-17.676l-142.68-142.68v-96.125l127.73 74.512 50.219 93.773c4.7734 7.5703 13.098 12.16 22.047 12.16s17.273-4.5898 22.047-12.16l50.219-93.773 127.73-74.504v96.125l-142.68 142.67c-4.6914 4.6875-7.3242 11.047-7.3242 17.676v125zm400-88.375-250 166.67v-192.95l142.68-142.68c4.6914-4.6875 7.3242-11.047 7.3242-17.676v-150c0-5.8906-2.082-11.59-5.875-16.098-3.793-4.5078-9.0547-7.5312-14.855-8.5391-5.8047-1.0078-11.777 0.066407-16.867 3.0312l-171.44 100c-3.9844 2.3477-7.25 5.7422-9.4453 9.8125l-31.52 58.84-31.52-58.84c-2.1953-4.0703-5.4609-7.4648-9.4453-9.8125l-171.44-100c-5.0898-2.9648-11.062-4.0391-16.867-3.0312-5.8008 1.0078-11.062 4.0312-14.855 8.5391-3.793 4.5078-5.875 10.207-5.875 16.098v150c0 6.6289 2.6328 12.988 7.3242 17.676l142.68 142.68v192.95l-250-166.67v-361.62c0.41797-75.562 25.227-148.97 70.73-209.29 45.508-60.324 109.28-104.34 181.82-125.5l22.941 114.7c1.1367 5.6641 4.1992 10.762 8.668 14.426 4.4688 3.6602 10.066 5.6641 15.844 5.668h100c5.7773-0.003906 11.375-2.0078 15.844-5.668 4.4688-3.6641 7.5312-8.7617 8.668-14.426l22.938-114.69c72.539 21.156 136.3 65.172 181.81 125.5 45.504 60.32 70.316 133.73 70.738 209.29z"/>
</svg>
