<svg id="svg" version="1.1" xmlns="http://www.w3.org/2000/svg" xmlns:xlink="http://www.w3.org/1999/xlink" width="400" height="400" viewBox="0, 0, 400,400"><g id="svgg"><path id="path0" d="M189.844 92.462 C 178.444 94.430,169.581 97.531,159.378 103.123 C 150.325 108.085,149.870 108.989,154.230 113.349 C 157.584 116.703,157.540 116.704,163.903 113.087 C 172.007 108.480,185.985 103.165,187.514 104.110 C 187.725 104.241,187.891 106.640,187.891 109.578 L 187.891 114.814 186.230 115.231 C 168.534 119.685,149.843 133.913,142.210 148.739 C 140.090 152.855,140.059 152.756,144.043 154.572 C 149.636 157.121,149.620 157.122,151.354 154.102 C 156.395 145.322,167.022 135.474,176.734 130.583 C 182.104 127.878,187.173 126.036,187.561 126.647 C 188.295 127.805,187.949 172.767,187.207 172.512 C 162.635 164.060,160.579 163.543,158.225 165.219 C 155.214 167.363,155.160 172.590,158.132 174.181 C 159.266 174.788,195.506 186.719,196.215 186.719 C 198.105 186.719,198.047 188.215,198.047 139.731 C 198.047 94.125,198.025 93.359,196.719 92.486 C 196.270 92.187,191.536 92.170,189.844 92.462 M209.375 92.969 C 208.603 93.741,208.594 94.271,208.594 139.453 L 208.594 185.156 209.412 185.974 C 210.566 187.128,210.714 187.090,230.078 180.600 C 249.172 174.200,248.961 174.286,249.861 172.552 C 251.240 169.896,250.613 167.211,248.180 165.356 C 246.089 163.761,245.282 163.916,231.664 168.511 C 224.910 170.791,219.241 172.656,219.067 172.656 C 218.893 172.656,218.750 162.178,218.750 149.372 L 218.750 126.087 219.824 126.354 C 231.750 129.319,245.489 139.790,253.846 152.283 C 257.309 157.460,256.936 157.355,262.598 154.740 C 267.157 152.634,267.129 152.317,261.681 144.336 C 251.934 130.055,237.235 119.518,221.680 115.661 L 218.945 114.983 218.837 109.399 L 218.728 103.815 220.204 104.077 C 225.604 105.037,236.898 109.578,243.301 113.364 C 248.636 116.519,249.050 116.510,252.172 113.166 C 256.390 108.647,255.998 107.830,247.266 102.937 C 234.339 95.694,212.417 89.927,209.375 92.969 M130.542 127.246 C 126.221 131.318,115.234 147.761,115.234 150.155 C 115.234 150.284,114.731 151.488,114.116 152.831 C 108.356 165.414,103.173 192.448,105.616 197.172 C 106.635 199.144,107.054 199.219,117.027 199.219 L 126.293 199.219 127.588 198.232 C 130.229 196.217,130.197 192.230,127.521 189.880 L 126.145 188.672 121.275 188.672 L 116.406 188.672 116.409 187.012 C 116.412 184.248,117.454 178.236,118.918 172.532 C 122.786 157.460,128.202 146.802,137.575 135.818 C 140.490 132.401,140.534 131.359,137.891 128.271 C 135.325 125.275,132.981 124.948,130.542 127.246 M269.588 127.190 C 265.686 130.530,265.680 132.189,269.554 136.769 C 280.605 149.836,288.411 168.565,289.666 185.026 L 289.939 188.606 285.039 188.737 C 280.441 188.859,280.074 188.927,279.095 189.844 C 276.293 192.465,276.243 196.684,278.991 198.609 C 280.612 199.745,298.465 199.494,299.834 198.316 L 300.883 197.414 300.815 191.383 C 300.569 169.421,291.552 145.331,277.541 129.199 C 273.910 125.019,272.531 124.671,269.588 127.190 M140.530 171.779 C 138.153 173.253,138.281 170.229,138.281 224.781 L 138.281 274.640 145.801 279.568 C 149.937 282.279,158.682 288.007,165.234 292.297 C 171.787 296.587,179.239 301.481,181.795 303.174 C 189.523 308.290,188.696 313.871,188.654 256.926 L 188.620 209.359 187.767 208.819 C 186.959 208.308,170.974 202.933,162.109 200.193 L 158.008 198.925 157.813 192.533 L 157.617 186.141 153.027 184.785 L 148.438 183.429 148.432 179.117 C 148.423 172.273,144.944 169.042,140.530 171.779 M261.133 171.466 C 258.926 172.379,258.407 173.610,258.270 178.253 C 258.116 183.455,258.420 183.063,253.210 184.770 L 249.023 186.142 248.779 188.872 C 248.645 190.373,248.513 193.284,248.486 195.341 L 248.438 199.079 244.824 200.145 C 238.168 202.108,219.737 208.275,218.848 208.837 L 217.969 209.393 217.969 256.966 C 217.969 296.433,218.059 304.662,218.499 305.264 C 219.398 306.493,221.260 306.179,223.749 304.378 C 226.517 302.376,233.798 297.491,253.227 284.602 L 268.368 274.557 268.266 224.163 L 268.164 173.768 266.705 172.431 C 265.190 171.043,263.052 170.673,261.133 171.466 M151.758 208.370 C 155.688 209.483,176.719 216.409,177.344 216.796 C 177.946 217.169,178.504 287.500,177.906 287.500 C 177.774 287.500,171.749 283.583,164.517 278.795 C 157.284 274.008,150.708 269.687,149.902 269.193 L 148.438 268.296 148.438 237.817 C 148.438 213.596,148.538 207.376,148.926 207.522 C 149.194 207.624,150.469 208.005,151.758 208.370 M258.071 219.595 C 257.929 226.075,257.813 239.764,257.813 250.014 L 257.813 268.651 254.004 271.109 C 251.909 272.460,245.494 276.701,239.749 280.533 C 234.003 284.365,229.125 287.500,228.909 287.500 C 228.648 287.500,228.516 275.644,228.516 252.229 L 228.516 216.958 242.480 212.406 C 250.161 209.902,256.869 207.844,257.387 207.833 L 258.329 207.813 258.071 219.595 M107.209 211.506 C 103.656 215.059,115.879 248.482,121.223 249.823 C 123.378 250.364,127.452 247.017,127.965 244.285 C 128.167 243.210,127.843 242.311,126.029 238.915 C 122.789 232.847,120.037 225.600,118.199 218.297 C 116.155 210.177,116.458 210.547,111.848 210.547 C 108.461 210.547,108.091 210.623,107.209 211.506 M199.338 211.489 C 197.905 212.722,197.414 222.182,198.649 224.783 C 200.237 228.131,205.923 228.276,207.611 225.013 C 208.748 222.814,208.446 213.239,207.192 211.749 C 205.799 210.093,201.141 209.939,199.338 211.489 M290.734 210.945 C 290.257 211.137,289.783 211.697,289.680 212.190 C 287.570 222.282,285.088 229.556,280.957 237.757 L 277.974 243.678 278.710 245.310 C 280.239 248.701,283.465 250.519,285.848 249.332 C 289.839 247.345,301.407 218.253,300.183 213.281 C 299.566 210.778,294.353 209.489,290.734 210.945 " stroke="none" fill="#92d3f5" fill-rule="evenodd"></path><path id="path1" d="M0.000 200.000 L 0.000 400.000 200.000 400.000 L 400.000 400.000 400.000 200.000 L 400.000 0.000 200.000 0.000 L 0.000 0.000 0.000 200.000 M197.266 92.578 C 198.025 93.337,198.047 93.894,198.067 112.402 C 198.147 188.148,198.172 187.109,196.244 187.109 C 195.795 187.109,161.681 175.976,158.863 174.910 C 153.408 172.846,155.348 164.069,161.261 164.064 C 162.605 164.063,182.234 170.213,186.816 172.072 C 187.463 172.334,187.500 171.104,187.500 149.456 C 187.500 136.865,187.443 126.563,187.373 126.563 C 186.689 126.563,180.999 128.803,177.734 130.357 C 167.643 135.162,155.627 146.280,151.303 154.814 C 150.332 156.731,150.325 156.735,148.658 156.547 C 146.725 156.329,141.033 153.632,140.463 152.664 C 140.078 152.008,143.102 145.436,144.531 143.825 C 144.854 143.461,145.381 142.639,145.703 141.998 C 146.285 140.839,147.225 139.583,148.535 138.214 C 148.911 137.821,149.219 137.335,149.219 137.132 C 149.219 136.930,149.422 136.639,149.670 136.486 C 149.973 136.299,150.014 136.381,149.794 136.735 C 149.615 137.026,150.511 136.275,151.785 135.066 C 162.048 125.332,180.270 114.844,186.919 114.844 C 187.405 114.844,187.500 113.979,187.500 109.570 C 187.500 105.567,187.380 104.297,187.004 104.297 C 183.469 104.297,170.471 109.506,162.971 113.929 C 157.793 116.983,157.328 116.956,153.868 113.406 C 149.189 108.605,150.141 107.360,163.654 100.592 C 176.210 94.303,194.605 89.918,197.266 92.578 M222.077 93.134 C 231.148 95.061,241.096 98.964,249.725 103.981 C 256.071 107.670,256.435 108.881,252.490 113.189 C 249.203 116.778,248.421 116.872,244.131 114.191 C 238.413 110.618,231.738 107.782,222.363 104.945 L 219.141 103.970 219.141 109.347 L 219.141 114.725 222.559 115.623 C 239.387 120.041,255.350 132.464,264.680 148.402 C 267.260 152.809,267.139 153.076,261.442 155.534 C 256.961 157.467,257.022 157.478,255.026 154.399 C 248.103 143.718,240.976 136.967,230.469 131.139 C 228.004 129.772,220.338 126.563,219.537 126.563 C 219.273 126.563,219.141 134.211,219.141 149.414 C 219.141 161.982,219.272 172.265,219.434 172.263 C 219.595 172.262,225.144 170.416,231.766 168.162 C 238.492 165.872,244.440 164.063,245.243 164.064 C 250.825 164.070,252.928 172.378,247.943 174.732 C 246.253 175.530,220.931 184.079,215.125 185.811 C 208.533 187.778,208.774 188.024,208.462 179.031 C 208.049 167.140,208.179 95.248,208.615 93.902 C 209.397 91.490,213.293 91.267,222.077 93.134 M136.109 126.212 C 140.779 129.422,141.084 132.069,137.296 136.523 C 126.339 149.406,118.116 168.850,116.959 184.608 L 116.690 188.281 120.857 188.281 C 127.203 188.281,129.688 189.834,129.688 193.799 C 129.688 199.023,128.380 199.606,116.669 199.608 L 107.362 199.609 106.166 198.413 L 104.970 197.217 105.193 189.917 C 105.316 185.902,105.611 181.475,105.849 180.078 C 107.124 172.601,111.217 158.261,113.486 153.320 C 113.979 152.246,114.698 150.576,115.083 149.609 C 115.468 148.643,116.251 147.061,116.823 146.094 C 119.712 141.206,121.089 138.758,121.548 137.695 C 121.826 137.051,122.278 136.383,122.551 136.211 C 122.824 136.039,123.644 134.984,124.371 133.867 C 128.838 127.010,133.163 124.189,136.109 126.212 M277.550 128.809 C 291.250 144.535,300.291 167.801,301.052 189.291 C 301.433 200.039,301.926 199.608,289.258 199.602 C 278.278 199.597,276.563 198.898,276.563 194.429 C 276.563 190.207,278.877 188.519,284.918 188.336 L 289.562 188.196 289.305 184.535 C 288.257 169.623,280.678 150.906,270.755 138.722 C 265.534 132.311,265.414 131.946,267.546 128.952 C 270.958 124.160,273.468 124.124,277.550 128.809 M146.431 171.762 C 148.323 173.148,148.824 174.751,148.724 179.091 L 148.633 183.008 153.320 184.570 L 158.008 186.133 158.121 192.383 L 158.234 198.633 173.061 203.495 C 181.216 206.169,188.064 208.533,188.280 208.749 C 188.891 209.360,188.815 305.169,188.203 305.781 C 187.155 306.830,185.455 305.909,171.589 296.777 C 163.678 291.567,155.980 286.522,154.481 285.566 C 145.646 279.925,138.338 274.930,138.130 274.388 C 137.815 273.567,137.818 176.240,138.134 174.664 C 138.812 171.272,143.517 169.627,146.431 171.762 M266.665 171.917 C 268.854 173.935,268.752 171.336,268.723 224.499 C 268.707 251.523,268.573 273.940,268.425 274.316 C 268.276 274.692,258.664 281.318,247.065 289.041 C 235.466 296.764,224.948 303.795,223.691 304.666 C 221.283 306.335,219.808 306.629,218.532 305.696 C 217.572 304.994,217.127 211.250,218.075 209.387 C 218.554 208.446,227.393 205.289,244.434 199.973 L 248.438 198.724 248.438 192.339 L 248.438 185.955 253.125 184.506 L 257.813 183.058 257.813 178.990 C 257.813 174.219,258.309 172.822,260.460 171.541 C 262.384 170.395,265.200 170.566,266.665 171.917 M148.642 237.988 L 148.764 268.164 150.261 269.113 C 151.084 269.635,156.328 273.080,161.914 276.770 C 167.500 280.460,173.346 284.292,174.904 285.287 L 177.739 287.096 177.639 252.078 L 177.539 217.061 171.875 215.155 C 164.680 212.735,149.228 207.813,148.826 207.813 C 148.658 207.813,148.575 221.392,148.642 237.988 M243.164 212.452 L 229.102 217.045 229.002 252.077 C 228.947 271.345,228.989 287.109,229.096 287.109 C 229.203 287.109,233.853 284.077,239.428 280.371 C 245.004 276.665,251.421 272.436,253.689 270.973 L 257.813 268.314 257.813 238.063 C 257.813 221.425,257.681 207.823,257.520 207.836 C 257.358 207.849,250.898 209.926,243.164 212.452 M115.988 210.840 C 116.620 211.354,117.199 213.025,118.323 217.578 C 120.199 225.181,122.752 232.015,126.042 238.245 C 128.523 242.942,128.588 243.139,128.151 244.599 C 126.904 248.762,122.095 251.320,119.442 249.232 C 115.006 245.743,104.536 216.224,106.334 212.277 C 107.295 210.168,113.945 209.178,115.988 210.840 M207.468 211.643 L 208.594 212.903 208.592 218.463 C 208.591 224.777,208.216 225.911,205.749 227.082 C 203.127 228.326,200.597 227.790,198.743 225.598 C 197.777 224.455,197.721 213.140,198.675 211.778 C 200.179 209.630,205.595 209.546,207.468 211.643 M298.572 210.590 C 302.294 212.286,298.742 226.974,290.899 242.312 C 286.498 250.920,284.062 252.147,280.028 247.789 C 277.358 244.904,277.453 243.681,280.882 236.783 C 284.428 229.648,286.346 224.503,287.899 217.956 C 289.436 211.480,289.618 211.003,290.719 210.560 C 291.978 210.054,297.442 210.075,298.572 210.590 " stroke="none" fill="#040e2f" fill-rule="evenodd"></path><path id="path2" d="M193.652 92.073 C 194.136 92.166,194.927 92.166,195.410 92.073 C 195.894 91.979,195.498 91.903,194.531 91.903 C 193.564 91.903,193.169 91.979,193.652 92.073 M211.621 92.073 C 212.104 92.166,212.896 92.166,213.379 92.073 C 213.862 91.979,213.467 91.903,212.500 91.903 C 211.533 91.903,211.138 91.979,211.621 92.073 M187.654 109.570 C 187.655 112.578,187.716 113.757,187.790 112.190 C 187.865 110.623,187.864 108.162,187.789 106.721 C 187.714 105.280,187.654 106.563,187.654 109.570 M272.363 125.660 C 272.739 125.758,273.354 125.758,273.730 125.660 C 274.106 125.562,273.799 125.481,273.047 125.481 C 272.295 125.481,271.987 125.562,272.363 125.660 M187.682 147.070 C 187.682 158.242,187.732 162.756,187.793 157.102 C 187.854 151.447,187.854 142.306,187.793 136.789 C 187.732 131.272,187.682 135.898,187.682 147.070 M245.117 141.797 C 246.393 143.086,247.524 144.141,247.632 144.141 C 247.739 144.141,246.783 143.086,245.508 141.797 C 244.232 140.508,243.101 139.453,242.993 139.453 C 242.886 139.453,243.842 140.508,245.117 141.797 M257.953 179.297 C 257.953 181.338,258.019 182.173,258.100 181.152 C 258.180 180.132,258.180 178.462,258.100 177.441 C 258.019 176.421,257.953 177.256,257.953 179.297 M248.598 186.472 C 248.485 186.767,248.450 187.953,248.519 189.109 L 248.646 191.211 248.835 188.573 C 249.025 185.919,248.976 185.488,248.598 186.472 M157.969 192.383 C 157.969 195.605,158.030 196.872,158.103 195.197 C 158.177 193.522,158.176 190.885,158.102 189.338 C 158.028 187.790,157.968 189.160,157.969 192.383 M105.169 188.672 C 105.169 189.424,105.249 189.731,105.347 189.355 C 105.446 188.979,105.446 188.364,105.347 187.988 C 105.249 187.612,105.169 187.920,105.169 188.672 M300.920 191.992 C 300.919 193.926,300.985 194.766,301.067 193.859 C 301.149 192.953,301.150 191.371,301.069 190.344 C 300.988 189.317,300.921 190.059,300.920 191.992 M112.620 199.511 C 115.156 199.579,119.199 199.579,121.604 199.510 C 124.009 199.442,121.934 199.386,116.992 199.386 C 112.051 199.387,110.083 199.443,112.620 199.511 M257.977 215.625 C 257.977 220.029,258.034 221.831,258.104 219.629 C 258.173 217.427,258.173 213.823,258.104 211.621 C 258.034 209.419,257.977 211.221,257.977 215.625 M208.354 218.750 C 208.354 221.436,208.416 222.534,208.492 221.191 C 208.569 219.849,208.569 217.651,208.492 216.309 C 208.416 214.966,208.354 216.064,208.354 218.750 M177.920 249.609 C 177.920 266.689,177.969 273.677,178.027 265.137 C 178.086 256.597,178.086 242.622,178.027 234.082 C 177.969 225.542,177.920 232.529,177.920 249.609 M228.689 230.273 C 228.689 236.719,228.742 239.410,228.808 236.255 C 228.873 233.099,228.873 227.826,228.808 224.536 C 228.743 221.246,228.689 223.828,228.689 230.273 M188.380 222.852 C 188.384 223.711,188.464 224.017,188.558 223.531 C 188.651 223.045,188.647 222.342,188.550 221.968 C 188.452 221.595,188.375 221.992,188.380 222.852 M202.251 227.620 C 202.737 227.713,203.440 227.710,203.813 227.612 C 204.187 227.514,203.789 227.438,202.930 227.442 C 202.070 227.447,201.765 227.527,202.251 227.620 M281.912 235.356 C 281.555 236.106,281.343 236.719,281.442 236.719 C 281.709 236.719,282.895 234.327,282.716 234.148 C 282.631 234.064,282.270 234.607,281.912 235.356 M228.660 253.125 C 228.660 255.381,228.725 256.304,228.804 255.176 C 228.883 254.048,228.883 252.202,228.804 251.074 C 228.725 249.946,228.660 250.869,228.660 253.125 " stroke="none" fill="#50799d" fill-rule="evenodd"></path><path id="path3" d="M187.434 169.923 C 187.363 171.427,187.437 172.658,187.598 172.657 C 187.759 172.657,187.891 171.426,187.891 169.922 C 187.891 166.390,187.602 166.391,187.434 169.923 M268.542 201.953 C 268.542 213.662,268.591 218.452,268.652 212.598 C 268.713 206.743,268.713 197.163,268.652 191.309 C 268.591 185.454,268.542 190.244,268.542 201.953 M138.064 195.898 C 138.064 202.344,138.117 205.035,138.183 201.880 C 138.248 198.724,138.248 193.451,138.183 190.161 C 138.118 186.871,138.064 189.453,138.064 195.898 M284.885 199.511 C 287.422 199.579,291.465 199.579,293.870 199.510 C 296.275 199.442,294.199 199.386,289.258 199.386 C 284.316 199.387,282.349 199.443,284.885 199.511 M110.831 210.438 C 111.525 210.524,112.755 210.526,113.566 210.441 C 114.376 210.357,113.809 210.286,112.305 210.284 C 110.801 210.283,110.138 210.352,110.831 210.438 M294.629 210.436 C 295.220 210.526,296.187 210.526,296.777 210.436 C 297.368 210.347,296.885 210.273,295.703 210.273 C 294.521 210.273,294.038 210.347,294.629 210.436 M138.067 240.430 C 138.067 248.164,138.119 251.383,138.183 247.584 C 138.247 243.784,138.247 237.456,138.183 233.521 C 138.119 229.587,138.067 232.695,138.067 240.430 M268.532 252.539 C 268.532 258.984,268.586 261.676,268.651 258.520 C 268.717 255.365,268.717 250.091,268.652 246.801 C 268.586 243.512,268.533 246.094,268.532 252.539 M228.658 245.508 C 228.659 247.656,228.725 248.485,228.804 247.350 C 228.883 246.215,228.882 244.457,228.802 243.444 C 228.722 242.431,228.657 243.359,228.658 245.508 M228.693 272.266 C 228.693 280.752,228.745 284.224,228.808 279.980 C 228.871 275.737,228.871 268.794,228.808 264.551 C 228.745 260.308,228.693 263.779,228.693 272.266 M177.851 282.422 C 177.851 283.604,177.925 284.087,178.014 283.496 C 178.104 282.905,178.104 281.938,178.014 281.348 C 177.925 280.757,177.851 281.240,177.851 282.422 " stroke="none" fill="#365e80" fill-rule="evenodd"></path><path id="path4" d="M208.384 113.867 C 208.384 124.609,208.435 128.948,208.496 123.508 C 208.557 118.068,208.557 109.279,208.496 103.977 C 208.434 98.674,208.384 103.125,208.384 113.867 M218.904 109.180 C 218.905 112.188,218.966 113.366,219.040 111.799 C 219.115 110.232,219.114 107.771,219.039 106.331 C 218.964 104.890,218.904 106.172,218.904 109.180 M129.688 127.539 C 128.739 128.506,128.050 129.297,128.158 129.297 C 128.265 129.297,129.129 128.506,130.078 127.539 C 131.027 126.572,131.715 125.781,131.608 125.781 C 131.501 125.781,130.636 126.572,129.688 127.539 M219.010 126.432 C 218.649 126.794,218.681 172.656,219.043 172.656 C 219.204 172.656,219.336 162.197,219.336 149.414 C 219.336 136.631,219.321 126.172,219.303 126.172 C 219.285 126.172,219.154 126.289,219.010 126.432 M198.145 132.617 C 198.150 133.477,198.230 133.782,198.323 133.296 C 198.417 132.810,198.413 132.107,198.315 131.734 C 198.217 131.360,198.141 131.758,198.145 132.617 M152.344 134.455 C 151.162 135.557,150.547 136.268,150.977 136.034 C 151.728 135.625,155.032 132.406,154.669 132.437 C 154.572 132.445,153.525 133.353,152.344 134.455 M149.332 137.109 C 149.220 137.539,149.005 137.891,148.856 137.891 C 148.707 137.891,148.175 138.462,147.674 139.160 C 146.784 140.400,146.799 140.396,148.316 138.949 C 149.171 138.135,149.870 137.212,149.870 136.898 C 149.870 136.079,149.571 136.196,149.332 137.109 M145.805 141.674 C 145.134 143.119,145.405 143.189,146.234 141.785 C 146.611 141.147,146.777 140.626,146.604 140.628 C 146.431 140.630,146.071 141.100,145.805 141.674 M208.382 162.109 C 208.382 171.025,208.433 174.673,208.496 170.215 C 208.558 165.757,208.558 158.462,208.496 154.004 C 208.433 149.546,208.382 153.193,208.382 162.109 M155.559 169.922 C 155.559 170.674,155.640 170.981,155.738 170.605 C 155.836 170.229,155.836 169.614,155.738 169.238 C 155.640 168.862,155.559 169.170,155.559 169.922 M138.041 179.688 C 138.041 182.373,138.104 183.472,138.180 182.129 C 138.256 180.786,138.256 178.589,138.180 177.246 C 138.104 175.903,138.041 177.002,138.041 179.688 M148.549 176.758 C 148.552 177.832,148.628 178.225,148.718 177.631 C 148.808 177.038,148.805 176.159,148.712 175.678 C 148.620 175.198,148.546 175.684,148.549 176.758 M268.493 177.930 C 268.495 179.648,268.563 180.303,268.646 179.384 C 268.728 178.465,268.727 177.059,268.643 176.259 C 268.559 175.459,268.492 176.211,268.493 177.930 M148.555 180.859 C 148.555 182.041,148.628 182.524,148.717 181.934 C 148.807 181.343,148.807 180.376,148.717 179.785 C 148.628 179.194,148.555 179.678,148.555 180.859 M116.538 187.500 L 116.602 188.477 120.898 188.496 L 125.195 188.515 121.022 188.386 C 117.078 188.263,116.838 188.208,116.661 187.390 C 116.501 186.648,116.483 186.664,116.538 187.500 M283.105 188.569 C 284.233 188.648,286.079 188.648,287.207 188.569 C 288.335 188.490,287.412 188.426,285.156 188.426 C 282.900 188.426,281.978 188.490,283.105 188.569 M138.060 216.992 C 138.060 222.363,138.115 224.615,138.182 221.995 C 138.250 219.376,138.250 214.982,138.183 212.230 C 138.115 209.478,138.060 211.621,138.060 216.992 M148.584 213.477 C 148.585 215.840,148.649 216.756,148.727 215.513 C 148.804 214.270,148.804 212.336,148.725 211.216 C 148.646 210.096,148.583 211.113,148.584 213.477 M201.855 210.439 C 202.554 210.525,203.696 210.525,204.395 210.439 C 205.093 210.352,204.521 210.281,203.125 210.281 C 201.729 210.281,201.157 210.352,201.855 210.439 M217.767 257.227 C 217.767 283.223,217.814 293.915,217.871 280.987 C 217.928 268.060,217.928 246.790,217.871 233.722 C 217.814 220.653,217.767 231.230,217.767 257.227 M291.895 210.426 C 292.271 210.524,292.886 210.524,293.262 210.426 C 293.638 210.327,293.330 210.247,292.578 210.247 C 291.826 210.247,291.519 210.327,291.895 210.426 M268.517 228.906 C 268.517 232.236,268.577 233.599,268.650 231.934 C 268.723 230.269,268.723 227.544,268.650 225.879 C 268.577 224.214,268.517 225.576,268.517 228.906 M268.493 238.086 C 268.495 239.805,268.563 240.459,268.646 239.540 C 268.728 238.622,268.727 237.215,268.643 236.415 C 268.559 235.615,268.492 236.367,268.493 238.086 M148.611 256.055 C 148.610 262.500,148.664 265.192,148.729 262.036 C 148.795 258.880,148.795 253.607,148.730 250.317 C 148.664 247.027,148.611 249.609,148.611 256.055 M138.060 263.867 C 138.060 269.238,138.115 271.490,138.182 268.870 C 138.250 266.251,138.250 261.857,138.183 259.105 C 138.115 256.353,138.060 258.496,138.060 263.867 M268.511 268.945 C 268.512 271.738,268.574 272.830,268.649 271.370 C 268.725 269.911,268.724 267.626,268.648 266.292 C 268.572 264.959,268.510 266.152,268.511 268.945 " stroke="none" fill="#204265" fill-rule="evenodd"></path></g></svg>