<?xml version="1.0" encoding="UTF-8"?>
<svg id="_图层_2" data-name=" 图层 2" xmlns="http://www.w3.org/2000/svg" viewBox="0 0 425.2 425.2">
  <defs>
    <style>
      .cls-1 {
        fill: #f0f0f0;
      }
    </style>
  </defs>
  <path id="_图层_1-2" data-name=" 图层 1-2" class="cls-1" d="M332.49,262.98c0,31.16-.07,62.33,.09,93.49,.02,3.75-1.27,5.82-4.31,7.82-27.08,17.87-54.05,35.89-81.04,53.89-1.94,1.29-3.71,2.82-5.68,4.06-4.68,2.93-8.63-.01-8.61-4.8,.17-59.74,.13-119.49,.14-179.24,0-.92,.1-1.84,0-2.75-.25-2.65,1.21-4.03,3.48-4.78,11.76-3.89,23.51-7.8,35.28-11.64,6.4-2.09,12.82-4.1,19.26-6.04,1.58-.47,2.06-1.3,2.06-2.87,0-6.58,.16-13.16,.13-19.75,0-2.24,.73-3.48,2.99-4.12,4.39-1.24,8.69-2.83,13.07-4.12,1.83-.54,2.5-1.48,2.49-3.38-.03-4.08-.03-8.17,.31-12.24,.48-5.87,4.94-9.5,10.94-9.23,5.49,.25,9.35,4.22,9.36,9.95,.04,31.91,.02,63.83,.02,95.74h.02Zm-78.31,123.43l.78,.34c1.9-1.3,3.79-2.62,5.71-3.89,16.11-10.62,32.22-21.25,48.37-31.82,1.85-1.21,2.58-2.55,2.58-4.82,0-37.9,.09-75.8,.16-113.7v-2.79c-1.26,.28-2.13,.41-2.97,.68-5.23,1.64-10.46,3.28-15.68,4.96-12.18,3.94-24.34,7.91-36.53,11.84-1.58,.51-2.4,1.16-2.4,3.12,.04,44.31,0,88.63-.03,132.94v3.13h.01ZM96.47,173.14v4.5c0,4.08,.02,4.05,3.8,5.16,4.07,1.19,8.07,2.61,12.18,3.64,2.27,.57,2.83,1.78,2.8,3.91-.11,6.58,0,13.16-.14,19.74-.03,1.58,.55,2.19,1.91,2.64,18.34,5.96,36.67,11.96,55.01,17.91,2.63,.85,3.53,2.44,3.53,5.2-.05,53.4-.02,106.81,0,160.21,0,7,.03,14,.03,20.99,0,.83,.04,1.68-.1,2.49-.68,3.88-3.43,5.04-6.69,2.85-5.04-3.39-10.04-6.84-15.12-10.17-24.62-16.16-49.24-32.33-73.91-48.39-2.59-1.68-3.57-3.52-3.56-6.69,.1-62.15,.06-124.3,.05-186.45,0-1.33-.01-2.67,.04-4,.21-5.47,4.53-9.6,9.86-9.46,5.94,.15,10.21,4.15,10.31,9.68,.04,2.08,0,4.17,0,6.25h0Zm57.81,213.24c.08-1.09,.19-1.88,.19-2.67,0-10.08-.02-20.16-.05-30.24-.12-34.32-.29-68.64-.31-102.96,0-2.49-1.21-3.07-3.02-3.67-13.9-4.57-27.78-9.2-41.68-13.74-4.15-1.35-8.36-2.49-12.91-3.83v2.9c-.01,14.58-.04,29.16-.03,43.73,0,23.49,0,46.98,.09,70.47,0,1.06,.52,2.57,1.32,3.1,13.48,9.01,27.04,17.92,40.61,26.81,5.12,3.35,10.31,6.59,15.8,10.09h0Zm19.12-225.98V69.25c-4.41,1.66-8.29,3.01-12.08,4.58-24.15,10.04-43.22,26.2-57.55,48.03-1.14,1.74-2.09,3.59-3.1,5.41-.89,1.61-2.28,2.4-3.96,1.7-4.98-2.08-9.94-4.23-14.77-6.63-.68-.34-1.19-2.53-.76-3.35,2.67-5.15,5.48-10.25,8.54-15.18,2-3.23,4.3-6.31,6.77-9.19,11.84-13.77,25.9-24.86,41.62-33.85,10.3-5.89,21.19-10.42,32.74-13.24,1.84-.45,2.82-1.14,2.73-3.34-.22-5.41-.15-10.83-.21-16.24,0-.72-.13-1.44-.26-2.77-6.71,2.09-13.13,3.99-19.48,6.08-11.52,3.79-22.18,9.35-32.45,15.73-.85,.53-1.73,1-2.63,1.44-3.12,1.55-5.73,1.19-8.2-1.29-2.05-2.07-3.99-4.25-5.97-6.39-3.01-3.24-3.07-6.63,.58-9.15,4.98-3.44,10.28-6.44,15.57-9.42,14.23-8.02,29.41-13.66,45.31-17.22,6.88-1.54,13.94-2.32,20.96-3.15,4.85-.58,7.19,1.81,7.2,6.9,.03,40.07,.04,80.15,.05,120.22v54.24c-.11,4.54-2.41,6.27-6.67,4.89-6.17-2-12.3-4.12-18.46-6.15-16.66-5.49-33.31-10.99-49.99-16.41-5.49-1.78-8.22-5.38-8.05-11.08,.15-5.13,3.59-9.68,8.81-10.27,3.07-.34,6.44,.51,9.46,1.5,14.61,4.79,29.14,9.8,43.7,14.73,.15,.05,.32,0,.55,0v.02h0Zm61.66-90.93v91.35c3.8-1.31,7.29-2.55,10.8-3.72,12.86-4.27,25.78-8.39,38.58-12.85,4.64-1.62,11.14,2.83,12.67,7.33,1.78,5.23-.45,11.12-5.52,13.17-5.38,2.18-10.96,3.88-16.47,5.75-14.17,4.79-28.34,9.58-42.53,14.31-3.54,1.18-7.15,2.18-10.75,3.18-4.72,1.31-7.15-.57-7.16-5.55-.03-25.08-.03-50.16-.03-75.23,0-32.41,.04-64.82,.06-97.23,0-6.68,2.29-8.73,9.06-8.05,27.95,2.81,53.48,12.48,77.17,27.33,.14,.09,.28,.18,.42,.28,4.85,3.45,7.08,6.85,1.19,12.2-1.22,1.11-2.23,2.47-3.29,3.75-3.59,4.3-6.52,4.71-11.31,1.87-5.58-3.31-11.12-6.71-16.93-9.59-10.85-5.37-22.42-8.83-34.06-12.02-.54-.15-1.12-.12-1.8-.18-.11,.59-.28,1.06-.28,1.52,0,5.92,.06,11.83-.02,17.75-.02,1.69,.71,2.35,2.23,2.7,25.74,5.95,47.6,18.75,66.15,37.45,9.33,9.41,17.03,19.98,23.41,31.55,2.41,4.37,1.98,5.66-2.5,7.71-3.55,1.63-7.14,3.18-10.75,4.67-2.26,.94-4.05,.55-5.48-1.78-7.01-11.39-15.04-21.96-25.01-30.99-13.61-12.32-29.3-20.96-46.7-26.6-.22-.07-.48-.04-1.14-.09h-.01ZM34.44,213.52c-4.91,0-9.83,.06-14.74-.02-5.85-.09-8.59-3.05-8.68-8.88-.31-19.07,2.81-37.64,8.23-55.85,2.25-7.56,4.45-15.17,7.28-22.52,2.32-6,5.43-11.72,8.4-17.45,2.95-5.68,5.85-11.42,9.33-16.77,5.3-8.15,11.29-15.84,18.43-22.52,2.17-2.03,6.22-2.45,8.58-.37,2.82,2.48,5.41,5.37,7.52,8.48,1.92,2.83,1.31,5.1-1.02,7.68-8.99,9.9-16.66,20.73-23.08,32.46-7.64,13.95-13.08,28.73-16.47,44.22-1.9,8.67-3.26,17.47-4.6,26.25-.58,3.79-.28,3.82,3.54,3.82,4.16,0,8.33-.04,12.49,.06,5.54,.13,9.78,4.71,9.86,10.49,.08,5.9-4.15,10.62-9.81,10.82-2.58,.09-5.16-.08-7.74-.11-2.5-.02-5,0-7.5,0v.21h-.02Zm338.94-.34c-5.16,0-10.33,.05-15.49,0-4.26-.05-7.02-2.13-8.38-6.14-2.54-7.51,2.64-14.87,10.51-14.93,3.92-.03,7.83-.14,11.74,0,2.12,.08,2.73-.68,2.62-2.72-.61-10.76-2.39-21.29-5.26-31.69-4.17-15.14-9.59-29.74-17.57-43.33-5.97-10.15-12.86-19.6-20.63-28.44-3.17-3.61-3.36-5.91-.69-9.88,2.42-3.61,5.14-7.02,9.79-7.96,2.57-.52,4.59,.16,6.45,2.2,18.78,20.67,31.82,44.58,40.52,71,6.83,20.74,10.05,42.02,9.8,63.84-.06,5.34-2.63,8.04-7.92,8.09-5.16,.05-10.33,0-15.49,0v-.03h0ZM24.64,234.99h3c4.93,0,6.32,1.02,7.26,5.94,3.68,19.28,10.15,37.53,20.14,54.46,2.29,3.87,1.93,7.33-.7,10.59-1.6,1.97-3.46,3.87-5.56,5.26-4.35,2.87-8.22,2.17-10.9-2.27-3.56-5.9-6.87-11.98-9.82-18.2-7-14.72-11.38-30.31-14.52-46.26-1.25-6.34,1.46-9.62,7.86-9.53,1.08,.02,2.17,0,3.25,0h0Zm359.75,.08h3.75c4.97,.04,8.24,3.67,7.02,8.48-2.61,10.3-5.31,20.59-8.48,30.72-3.64,11.62-9.38,22.36-15.33,32.94-.98,1.74-2.52,3.35-4.15,4.51-2.24,1.59-4.8,1.63-7.27,.11-3.03-1.87-5.57-4.18-7.25-7.37-1.34-2.54-1.52-5.03-.14-7.62,2.5-4.69,5.02-9.37,7.38-14.12,4.72-9.5,8.02-19.54,10.75-29.76,1.14-4.25,1.92-8.6,2.89-12.9,.83-3.67,2.15-4.77,5.84-4.88,1.66-.05,3.33,0,5,0v-.1h-.01Zm-190.39,16.19c0-2.83-.04-5.65,0-8.48,.09-5.03,2.73-7.62,7.71-7.63h5.24c4.05,.02,7.03,2.33,7.19,6.31,.26,6.47,.31,12.97-.02,19.44-.23,4.54-5.66,8.28-10.79,8.03-5.11-.25-9.29-4.33-9.36-9.19-.04-2.83,0-5.65,0-8.48h.03Z"/>
</svg>