<?xml version="1.0" standalone="no"?>
<!DOCTYPE svg PUBLIC "-//W3C//DTD SVG 20010904//EN"
 "http://www.w3.org/TR/2001/REC-SVG-20010904/DTD/svg10.dtd">
<svg version="1.0" xmlns="http://www.w3.org/2000/svg"
 width="1423.000000pt" height="1423.000000pt" viewBox="0 0 1423.000000 1423.000000"
 preserveAspectRatio="xMidYMid meet">

<g transform="translate(0.000000,1423.000000) scale(0.100000,-0.100000)"
fill="#64748b" stroke="none">
<path d="M6817 13633 c-10 -9 -9 -2383 1 -2383 4 0 54 72 112 160 58 88 107
160 110 159 3 0 93 -131 200 -291 107 -160 206 -304 218 -320 l24 -28 1484 0
c816 0 1484 2 1484 5 0 3 -234 307 -520 674 -286 368 -520 672 -520 676 0 4
234 308 520 676 286 367 520 671 520 674 0 8 -3625 6 -3633 -2z"/>
<path d="M5734 8828 c-715 -1063 -1303 -1938 -1307 -1945 -8 -13 1007 -767
1032 -767 9 0 368 260 798 577 l783 577 791 -585 790 -585 519 382 c285 211
517 388 515 393 -6 19 -2605 3880 -2613 3883 -5 1 -593 -867 -1308 -1930z"/>
<path d="M6250 6129 c-431 -318 -787 -579 -791 -579 -4 0 -296 214 -649 475
l-643 474 -107 -157 c-436 -641 -3270 -4863 -3270 -4871 0 -8 1832 -11 6250
-11 4418 0 6250 3 6250 11 0 8 -2834 4230 -3270 4871 l-107 157 -644 -474
c-354 -261 -647 -474 -651 -472 -4 1 -359 261 -789 577 -430 316 -784 576
-788 577 -3 1 -359 -259 -791 -578z"/>
</g>
</svg>
