<?xml version="1.0" standalone="no"?>
<!DOCTYPE svg PUBLIC "-//W3C//DTD SVG 20010904//EN"
 "http://www.w3.org/TR/2001/REC-SVG-20010904/DTD/svg10.dtd">
<svg version="1.0" xmlns="http://www.w3.org/2000/svg"
 width="1718.000000pt" height="1718.000000pt" viewBox="0 0 1718.000000 1718.000000"
 preserveAspectRatio="xMidYMid meet">

<g transform="translate(0.000000,1718.000000) scale(0.100000,-0.100000)"
fill="#64748b" stroke="none">
<path d="M5420 11140 c0 -2508 2 -4560 4 -4560 2 0 37 16 78 35 135 62 215 79
373 79 167 0 237 -15 373 -79 168 -80 282 -178 381 -329 103 -159 146 -323
138 -530 -5 -144 -21 -210 -85 -349 -19 -42 -33 -79 -31 -80 101 -73 231 -197
293 -279 16 -21 32 -38 36 -38 5 0 20 20 34 44 77 132 234 305 375 413 47 37
87 68 89 69 2 1 -18 31 -43 66 -81 109 -155 274 -185 411 -20 91 -29 274 -19
365 47 421 342 791 741 931 145 50 241 64 418 58 232 -7 394 -58 578 -180 227
-151 399 -391 469 -655 24 -87 26 -116 27 -277 1 -140 -3 -196 -17 -253 -35
-145 -107 -302 -189 -410 -22 -30 -38 -55 -36 -56 172 -118 368 -324 485 -512
10 -18 14 -16 44 21 84 101 196 208 298 282 2 2 -12 38 -32 80 -52 114 -76
202 -86 322 -25 277 73 531 277 722 273 256 648 319 987 164 43 -19 79 -35 81
-35 2 0 4 2052 4 4560 l0 4560 -2930 0 -2930 0 0 -4560z m4280 2535 l0 -895
-1350 0 -1350 0 0 895 0 895 1350 0 1350 0 0 -895z m-2030 -1800 l0 -225 -220
0 -220 0 0 225 0 225 220 0 220 0 0 -225z m900 0 l0 -225 -220 0 -220 0 0 225
0 225 220 0 220 0 0 -225z m900 0 l0 -225 -220 0 -220 0 0 225 0 225 220 0
220 0 0 -225z m-2700 -900 l0 -225 -220 0 -220 0 0 225 0 225 220 0 220 0 0
-225z m900 0 l0 -225 -220 0 -220 0 0 225 0 225 220 0 220 0 0 -225z m900 0
l0 -225 -220 0 -220 0 0 225 0 225 220 0 220 0 0 -225z m900 0 l0 -225 -220 0
-220 0 0 225 0 225 220 0 220 0 0 -225z m900 0 l0 -225 -220 0 -220 0 0 225 0
225 220 0 220 0 0 -225z m-3600 -900 l0 -225 -220 0 -220 0 0 225 0 225 220 0
220 0 0 -225z m900 0 l0 -225 -220 0 -220 0 0 225 0 225 220 0 220 0 0 -225z
m900 0 l0 -225 -220 0 -220 0 0 225 0 225 220 0 220 0 0 -225z m900 0 l0 -225
-220 0 -220 0 0 225 0 225 220 0 220 0 0 -225z m900 0 l0 -225 -220 0 -220 0
0 225 0 225 220 0 220 0 0 -225z m-3600 -900 l0 -225 -220 0 -220 0 0 225 0
225 220 0 220 0 0 -225z m900 0 l0 -225 -220 0 -220 0 0 225 0 225 220 0 220
0 0 -225z m900 0 l0 -225 -220 0 -220 0 0 225 0 225 220 0 220 0 0 -225z m900
0 l0 -225 -220 0 -220 0 0 225 0 225 220 0 220 0 0 -225z m900 0 l0 -225 -220
0 -220 0 0 225 0 225 220 0 220 0 0 -225z m-3600 -900 l0 -225 -220 0 -220 0
0 225 0 225 220 0 220 0 0 -225z m900 0 l0 -225 -220 0 -220 0 0 225 0 225
220 0 220 0 0 -225z m900 0 l0 -225 -220 0 -220 0 0 225 0 225 220 0 220 0 0
-225z m900 0 l0 -225 -220 0 -220 0 0 225 0 225 220 0 220 0 0 -225z m900 0
l0 -225 -220 0 -220 0 0 225 0 225 220 0 220 0 0 -225z"/>
<path d="M1600 6815 l0 -4615 334 0 334 0 5 752 c4 640 7 765 21 835 49 252
159 472 331 668 46 52 102 102 205 183 l24 20 -38 78 c-87 178 -113 412 -68
597 77 311 304 554 612 652 72 23 108 28 230 32 105 4 164 1 215 -10 365 -78
646 -372 706 -741 15 -95 7 -288 -16 -371 -9 -33 -35 -100 -58 -149 l-41 -88
28 -21 c16 -11 51 -40 80 -64 58 -50 51 -55 85 62 28 96 117 274 186 370 67
94 176 208 260 273 33 25 62 47 64 49 2 1 -14 42 -37 90 -48 106 -71 190 -82
301 -20 219 48 454 180 621 l40 50 -2 2518 -3 2518 -1797 3 -1798 2 0 -4615z
m1570 1910 l0 -1795 -225 0 -225 0 0 1795 0 1795 225 0 225 0 0 -1795z m1130
0 l0 -1795 -225 0 -225 0 0 1795 0 1795 225 0 225 0 0 -1795z"/>
<path d="M11500 8911 l0 -2520 49 -65 c111 -146 161 -296 168 -501 4 -126 2
-150 -20 -236 -14 -52 -41 -129 -61 -171 -20 -42 -36 -80 -36 -85 0 -4 26 -26
56 -48 80 -57 222 -209 287 -307 74 -112 121 -209 164 -336 19 -59 36 -108 37
-109 1 -2 25 17 53 40 28 24 64 53 79 64 l28 21 -38 78 c-87 178 -113 412 -67
599 74 303 301 547 601 646 84 28 111 32 240 36 105 4 164 1 215 -10 278 -59
508 -242 631 -500 58 -123 75 -197 81 -352 6 -167 -12 -265 -77 -403 -22 -46
-40 -88 -40 -91 0 -4 39 -39 88 -78 222 -183 371 -421 450 -718 l26 -100 4
-783 3 -782 339 0 340 0 0 4615 0 4615 -1800 0 -1800 0 0 -2519z m1350 -186
l0 -1795 -225 0 -225 0 0 1795 0 1795 225 0 225 0 0 -1795z m1120 0 l0 -1795
-220 0 -220 0 0 1795 0 1795 220 0 220 0 0 -1795z"/>
<path d="M8179 7136 c-186 -39 -328 -116 -464 -251 -290 -289 -347 -723 -143
-1082 48 -86 185 -237 254 -280 50 -32 53 -39 22 -48 -13 -4 -59 -25 -103 -47
-315 -159 -565 -446 -675 -776 -25 -76 -36 -127 -66 -297 l-7 -40 -9 60 c-51
371 -279 687 -620 857 l-79 40 40 35 c125 107 221 323 221 498 0 139 -64 316
-153 423 -214 258 -579 323 -866 155 -270 -158 -396 -499 -294 -795 35 -99
102 -205 172 -271 l50 -46 -79 -40 c-120 -60 -186 -107 -288 -206 -175 -168
-285 -375 -326 -614 -12 -74 -16 -170 -17 -435 -1 -325 -2 -337 -15 -254 -56
363 -292 680 -623 839 l-69 33 67 71 c79 84 120 151 156 260 121 360 -99 758
-475 855 -154 40 -339 18 -485 -58 -91 -47 -219 -173 -268 -262 -78 -142 -105
-317 -73 -466 31 -139 127 -304 219 -375 l28 -22 -86 -44 c-304 -153 -508
-408 -597 -745 -22 -81 -22 -98 -25 -845 l-4 -763 5851 0 5850 0 0 708 c0 779
-3 823 -60 995 -98 292 -304 526 -579 658 l-69 33 67 71 c79 84 120 151 156
260 121 360 -99 758 -475 855 -154 40 -339 18 -485 -58 -91 -47 -219 -173
-268 -262 -78 -142 -105 -317 -73 -466 31 -139 127 -304 219 -375 l28 -22 -86
-44 c-253 -128 -434 -322 -541 -580 -36 -86 -72 -223 -76 -283 -1 -19 -5 127
-8 325 -7 378 -11 419 -61 567 -92 278 -299 514 -568 649 l-80 40 50 46 c140
131 220 337 205 529 -19 251 -166 467 -387 568 -103 47 -168 60 -284 60 -310
-2 -552 -184 -647 -484 -19 -62 -23 -96 -22 -195 0 -102 5 -132 27 -201 32
-97 104 -211 175 -276 l51 -47 -79 -40 c-120 -60 -186 -107 -288 -206 -175
-167 -285 -376 -326 -613 -15 -92 -26 -115 -26 -58 0 49 -35 222 -61 300 -73
218 -233 455 -403 594 -119 98 -290 202 -373 227 -30 9 -29 17 6 38 62 36 184
163 241 249 175 266 195 596 55 885 -112 229 -327 408 -570 474 -102 27 -309
35 -406 15z"/>
</g>
</svg>
